<?xml version="1.0" standalone="no"?>
<!DOCTYPE svg PUBLIC "-//W3C//DTD SVG 1.1//EN" "http://www.w3.org/Graphics/SVG/1.1/DTD/svg11.dtd">
<svg width="100%" height="100%" viewBox="0 0 200 100" version="1.1" xmlns="http://www.w3.org/2000/svg" xmlns:xlink="http://www.w3.org/1999/xlink" xml:space="preserve" style="fill-rule:evenodd;clip-rule:evenodd;stroke-linejoin:round;stroke-miterlimit:1.41421;">
    <path d="M-0.051,0.619C-0.17,3.246 -0.501,6.252 0.039,8.843C0.871,12.837 3.233,16.267 5.354,19.675C8.463,24.671 11.572,29.567 14.99,34.35C16.938,37.076 19.624,40.315 22.49,42.228C23.634,42.992 24.661,43.907 25.837,44.63C26.256,44.887 26.595,44.998 27.039,45.173C27.227,45.247 27.803,45.335 27.607,45.385C26.998,45.541 26.447,46.441 26.116,46.937C24.871,48.805 24.085,50.84 23.502,53.002C21.339,61.031 22.896,69.37 25.734,76.978C28.639,84.765 36.008,89.096 44.046,89.32C48.472,89.443 52.94,89.412 57.337,88.921C59.748,88.652 62.442,88.507 64.677,87.461C67.169,86.294 68.79,83.792 70.479,81.735C73.878,77.598 76.315,73.127 78.339,68.19C79.514,65.323 80.919,62.242 80.919,59.081C80.919,57.653 79.541,56.232 78.955,54.979C78.593,54.207 78.752,53.404 78.464,52.732C78.379,52.533 78.707,53.095 78.861,53.249C79.19,53.578 79.496,53.933 79.849,54.237C80.988,55.221 82.149,56.111 83.431,56.899C86.946,59.059 91.482,59.086 95.464,59.285C98.543,59.438 101.615,59.308 104.691,59.418C106.548,59.484 108.837,60.026 110.732,59.719C115.37,58.967 120.024,57.19 124.586,56.012C127.46,55.271 130.315,54.459 133.169,53.642C134.26,53.33 135.31,52.894 136.395,52.56C136.716,52.461 137.082,52.353 137.387,52.207C137.481,52.161 137.558,51.839 137.558,51.944C137.558,54.687 137.196,57.421 137.126,60.165C137.037,63.645 136.807,67.334 137.126,70.804C137.5,74.874 139.468,78.95 141.608,82.348C143.528,85.396 145.383,88.346 148.883,89.622C150.256,90.123 153.103,89.547 154.386,89.205C159.101,87.951 163.525,85.101 167.628,82.532C171.415,80.161 175.683,77.877 178.982,74.827C183.263,70.869 184.146,65.094 184.67,59.576C184.853,57.645 185.44,55.137 184.903,53.223C184.233,50.83 182.564,48.981 180.957,47.13C180.233,46.296 179.521,45.462 178.918,44.577C178.571,44.067 178.415,43.01 178.124,42.384C177.59,41.235 176.405,38.987 176.918,37.591C177.681,35.516 179.043,33.41 180.163,31.523C182.923,26.875 185.807,22.228 189.051,17.896C191.397,14.764 194.094,11.899 196.508,8.834C198.37,6.471 198.339,3.707 199.394,1.021C199.667,0.325 199.943,-0.497 200.053,-1.244C200.075,-1.392 199.947,-2.238 200.133,-2.238" style="fill:rgb(174,174,174);"/>
</svg>
