<?xml version="1.0" standalone="no"?>
<!DOCTYPE svg PUBLIC "-//W3C//DTD SVG 1.1//EN" "http://www.w3.org/Graphics/SVG/1.1/DTD/svg11.dtd">
<svg width="100%" height="100%" viewBox="0 0 200 100" version="1.1" xmlns="http://www.w3.org/2000/svg" xmlns:xlink="http://www.w3.org/1999/xlink" xml:space="preserve" style="fill-rule:evenodd;clip-rule:evenodd;stroke-linecap:round;stroke-linejoin:round;stroke-miterlimit:1.41421;">
    <path d="M1.451,0.763C4.851,4.758 9.182,7.862 13.215,11.18C15.37,12.953 17.566,14.881 20.134,16.057C20.742,16.335 21.687,16.216 22.21,16.48C22.303,16.527 22.21,18.147 22.21,18.204C22.21,19.866 22.189,21.529 22.189,23.19C22.189,26.371 23.378,29.647 24.545,32.564C26.521,37.505 29.433,41.82 32.651,46.017C34.366,48.254 36.176,50.384 37.813,52.677C38.14,53.135 39.275,54.083 39.435,54.579C39.51,54.809 38.389,56.178 38.267,56.424C37.217,58.533 36.34,60.632 35.501,62.849C33.399,68.405 32.137,74.684 29.456,79.965C29.337,80.2 27.28,80.039 27.003,80.076C25.264,80.306 23.497,81.032 22.482,82.567C20.538,85.509 19.15,88.869 18.182,92.248C17.842,93.436 17.443,94.646 17.222,95.862C17.163,96.183 17.117,96.529 16.994,96.834C16.941,96.967 16.486,97.062 16.629,97.062C19.133,97.062 21.664,97.44 24.173,97.495C31.349,97.653 38.548,97.495 45.726,97.495C48.252,97.495 50.777,97.027 53.296,96.837C53.326,96.835 55.041,96.916 55.116,96.781C55.318,96.416 55.263,95.38 55.423,94.928C56.186,92.767 57.304,89.616 56.202,87.416C55.074,85.165 51.319,83.307 50.96,80.673C50.811,79.584 51.248,78.463 51.66,77.492C54.265,71.342 58.117,65.429 62.986,60.812C64.213,59.648 65.403,58.404 66.744,57.369C68.745,55.822 71.86,54.643 72.304,52.197C73.43,45.985 72.338,39.289 72.583,33.004C72.648,31.312 72.798,29.652 72.798,27.96C72.798,27.647 72.776,26.647 73.009,26.395C73.125,26.271 74.724,26.684 74.856,26.698C76.505,26.88 78.151,27.015 79.795,27.229C87.055,28.171 93.911,30.823 101.12,31.813C103.272,32.109 104.941,31.726 107.157,31.726C112.171,31.726 117.205,31.7 122.213,31.529C124.473,31.452 126.724,31.344 128.982,31.241C129.715,31.208 130.59,31.297 131.313,31.112C131.621,31.033 132.072,30.304 132.13,30.617C132.62,33.252 132.062,36.374 132.13,39.039C132.225,42.701 132.498,46.361 132.725,50.017C132.817,51.503 132.946,52.994 133.141,54.472C133.177,54.747 133.152,55.635 133.357,55.881C135.343,58.253 137.76,60.126 140.04,62.207C143.544,65.406 146.958,68.669 150.368,71.967C151.873,73.423 153.334,74.841 154.658,76.468C155.057,76.957 155.817,77.558 155.991,78.192C156.57,80.292 156.12,83.225 156.39,85.453C156.415,85.662 156.954,87.925 156.775,88.119C156.144,88.803 155.868,90.308 155.547,91.183C154.761,93.322 154.398,95.286 154.398,97.545C154.398,97.641 154.474,97.199 154.517,97.284C154.618,97.487 155.591,97.532 155.752,97.55C157.037,97.688 158.276,97.728 159.571,97.728L194.414,97.728C194.827,97.728 195.269,97.684 195.68,97.728C195.948,97.756 196.476,98.139 196.476,97.869C196.476,92.296 196.503,86.636 190.983,83.519C188.92,82.355 186.306,80.834 184.002,80.206C183.609,80.099 181.471,80.419 181.274,80.142C180.277,78.737 179.685,76.178 179.015,74.559C177.121,69.981 175.288,65.282 172.659,61.06C171.401,59.041 169.571,57.459 167.835,55.877C166.758,54.895 165.986,53.615 164.866,52.661C163.711,51.677 161.511,50.343 160.823,48.968C160.597,48.516 161.005,47.566 161.126,47.181C161.599,45.68 162.212,44.232 162.736,42.746C163.581,40.348 164.474,37.973 165.35,35.586C166.044,33.695 166.893,31.59 167.191,29.587C167.256,29.152 167.214,26.901 167.517,26.563C167.809,26.235 168.396,26.606 168.833,26.563C170.53,26.392 172.138,25.786 173.753,25.282C179.113,23.611 184.848,21.796 189.153,18.007C193.111,14.524 196.73,9.973 198.708,5.146C199.344,3.594 199.948,2.048 200.45,0.447C200.483,0.341 201.042,-2.218 201.047,-2.218" style="fill:rgb(162,160,162);"/>
    <path d="M29.35,80.035L45.036,80.035C46.758,80.035 48.047,80.321 49.664,80.677C49.894,80.728 51.11,81.009 51.11,81.34" style="fill:none;stroke-width:2px;stroke:black;"/>
    <path d="M28.504,80.356C27.926,80.356 24.327,80.06 23.572,80.784C21.121,83.131 19.686,87.022 18.54,90.164C17.948,91.79 17.373,93.396 16.895,95.061C16.842,95.247 16.627,96.635 16.698,96.655C18.767,97.224 22.031,96.183 24.153,96.078C30.407,95.769 36.624,96.444 42.877,96.444C46.412,96.444 49.946,96.326 53.446,96.906C54.051,97.006 56.672,97.944 57.262,97.408C57.653,97.053 57.262,94.079 57.262,93.585C57.262,92.111 57.492,90.438 57.181,88.993C56.708,86.799 54.711,84.82 53.186,83.295C52.27,82.38 51.469,81.381 50.489,80.525C50.107,80.19 49.693,79.9 49.334,79.541C49.174,79.381 48.562,79.139 48.788,79.139" style="fill:none;stroke-width:2px;stroke:black;"/>
    <path d="M26.763,96.258C27.282,93.598 28.502,91.33 29.473,88.866C29.971,87.605 30.611,87.646 31.284,86.704C31.337,86.629 31.917,85.574 32.029,85.677C32.431,86.049 31.863,88.294 31.794,88.703C31.357,91.322 30.682,94.052 30.682,96.688" style="fill:none;stroke-width:2px;stroke:black;"/>
    <path d="M154.117,97.826C154.102,97.037 153.797,96.198 154.075,95.459C154.444,94.48 156.512,93.6 157.449,93.439C157.818,93.375 157.396,92.686 157.449,92.316C157.539,91.685 157.831,91.099 158.051,90.518C158.762,88.647 160.818,86.402 162.488,85.394C165.932,83.315 169.547,83.484 173.359,82.592C175.734,82.037 178.164,80.706 180.571,80.384C183.984,79.928 188.53,81.395 191.274,83.53C192.973,84.851 193.132,87.025 193.93,89.009C194.733,91.003 195.537,92.989 196.322,94.985C196.686,95.908 196.989,96.695 196.989,97.684C196.989,97.719 197.032,98.391 196.989,98.408C195.618,98.968 193.337,98.532 191.907,98.532C190.019,98.532 188.135,98.58 186.251,98.417C182.43,98.087 178.639,97.968 174.81,97.847C168.15,97.637 161.535,97.908 154.868,97.908" style="fill:none;stroke-width:2px;stroke:black;"/>
    <path d="M184.43,98.325C184.208,96.938 183.935,95.55 183.857,94.157C183.818,93.447 183.779,92.76 183.779,92.046C183.779,90.996 183.779,89.946 183.779,88.896C183.779,88.633 183.965,89.401 184.138,89.599C184.61,90.139 185.012,90.765 185.387,91.381C186.366,92.991 186.235,95.047 187.013,96.603C187.239,97.054 187.021,99.026 187.503,99.026" style="fill:none;stroke-width:2px;stroke:black;"/>
    <path d="M32.1,14.529L32.1,7.487C32.1,6.775 31.822,6.063 32.696,6.063" style="fill:none;stroke-width:2px;stroke:black;"/>
    <path d="M32.476,32.844C30.886,30.676 29.436,27.621 29.436,24.879" style="fill:none;stroke-width:2px;stroke:black;"/>
    <path d="M21.46,14.386C20.128,12.361 20.069,10.955 20.069,8.559C20.069,7.645 19.931,7.044 20.607,6.367" style="fill:none;stroke-width:2px;stroke:black;"/>
    <path d="M13.381,8.805C11.599,7.297 10.091,5.811 10.091,3.395" style="fill:none;stroke-width:2px;stroke:black;"/>
    <path d="M46.977,48.413C46.749,46.518 45.392,41.531 48.345,40.937" style="fill:none;stroke-width:2px;stroke:black;"/>
    <path d="M58.466,23.282C58,22.196 56.601,19.809 56.601,18.387" style="fill:none;stroke-width:2px;stroke:black;"/>
    <path d="M72.203,42.013C72.203,39.042 71.903,36.043 71.903,33.112" style="fill:none;stroke-width:2px;stroke:black;"/>
    <path d="M83.001,26.74C83.001,25.062 83.441,22.138 82.578,20.424" style="fill:none;stroke-width:2px;stroke:black;"/>
    <path d="M101.178,31.621C101.291,28.016 99.86,25.333 99.015,21.971" style="fill:none;stroke-width:2px;stroke:black;"/>
    <path d="M124.508,24.06C123.971,21.514 123.096,18.87 123.096,16.252" style="fill:none;stroke-width:2px;stroke:black;"/>
    <path d="M139.97,36.063C139.97,33.476 139.97,30.889 139.97,28.302" style="fill:none;stroke-width:2px;stroke:black;"/>
    <path d="M139.238,55.055C137.801,52.623 136.394,50.797 136.394,47.989" style="fill:none;stroke-width:2px;stroke:black;"/>
    <path d="M159.512,66.363C159.512,63.375 159.512,60.387 159.512,57.399" style="fill:none;stroke-width:2px;stroke:black;"/>
    <path d="M156.838,44.204C156.838,43.166 156.838,42.129 156.838,41.092" style="fill:none;stroke-width:2px;stroke:black;"/>
    <path d="M167.811,26.373C167.528,24.664 167.429,23.232 167.429,21.547" style="fill:none;stroke-width:2px;stroke:black;"/>
    <path d="M182.148,18.592C182.037,16.498 181.858,14.489 181.858,12.396" style="fill:none;stroke-width:2px;stroke:black;"/>
    <path d="M193.626,12.06C193.626,8.608 193.626,5.155 193.626,1.702" style="fill:none;stroke-width:2px;stroke:black;"/>
    <path d="M176.697,5.285C176.463,3.972 175.59,1.403 175.59,-0.11" style="fill:none;stroke-width:2px;stroke:black;"/>
    <path d="M154.562,19.473C153.55,16.044 152.583,12.984 152.583,9.364" style="fill:none;stroke-width:2px;stroke:black;"/>
</svg>
