<?xml version="1.0" standalone="no"?>
<!DOCTYPE svg PUBLIC "-//W3C//DTD SVG 1.1//EN" "http://www.w3.org/Graphics/SVG/1.1/DTD/svg11.dtd">
<svg width="100%" height="100%" viewBox="0 0 200 100" version="1.1" xmlns="http://www.w3.org/2000/svg" xmlns:xlink="http://www.w3.org/1999/xlink" xml:space="preserve" style="fill-rule:evenodd;clip-rule:evenodd;stroke-linejoin:round;stroke-miterlimit:1.41421;">
    <path d="M0.495,0.34C1.583,7.463 6.179,14.028 9.877,20.071C11.691,23.037 13.523,26.084 13.803,29.626C14.132,33.784 11.563,37.009 9.918,40.653C8.085,44.713 7.181,49.99 7.891,54.468C8.747,59.878 12.93,65.116 11.5,70.828C11.177,72.119 9.491,75.438 7.772,75.438C7.63,75.438 8.057,75.438 8.199,75.438C8.546,75.438 8.85,75.28 9.181,75.197C10.273,74.923 11.406,74.728 12.478,74.369C15.642,73.308 19.182,71.645 20.498,68.333C22.129,64.229 22.347,59.126 22.546,54.742C22.642,52.627 22.436,50.275 22.976,48.202C24.16,43.666 29.986,40.229 33.715,38.442C36.433,37.14 38.932,37.035 41.849,37.035C42.647,37.035 43.272,36.978 43.946,36.754C44.04,36.722 44.906,36.122 44.976,36.251C45.13,36.535 44.498,37.1 44.35,37.289C43.657,38.178 43.086,39.329 42.847,40.44C42.191,43.497 43.209,46.5 44.341,49.285C46.042,53.474 47.986,57.661 50.043,61.684C51.131,63.812 52.639,65.758 53.555,67.964C55.102,71.689 56.327,75.607 57.362,79.503C58.365,83.275 59.229,87.631 58.873,91.585C58.747,92.992 57.417,94.23 57.75,95.677C58.004,96.782 59.092,97.656 60.128,97.95C60.302,97.999 62.06,98.17 62.06,98.198C62.06,98.487 62.06,97.619 62.06,97.33C62.06,96.752 62.425,96.224 62.728,95.741C63.721,94.156 64.614,92.442 66.042,91.199C68.515,89.047 71.674,88.35 74.204,86.397C74.392,86.252 74.169,85.918 74.204,85.683C74.272,85.221 74.454,84.782 74.593,84.336C75.183,82.436 75.754,80.493 76.068,78.523C76.879,73.436 77.621,67.444 75.649,62.514C74.738,60.237 73.296,58.099 72.213,55.894C71.793,55.04 70.89,54.289 70.687,53.331C70.524,52.567 71.038,51.818 71.381,51.179C72.236,49.59 73.097,48.008 74.082,46.496C75.029,45.043 76.107,43.861 77.333,42.634C78.007,41.96 78.732,41.38 79.479,40.79C80.094,40.303 80.721,39.901 81.325,39.415C83.792,37.432 85.903,37.795 88.89,37.795C89.974,37.795 91.059,37.795 92.144,37.795C93.69,37.795 95.479,38.034 97.003,37.734C99.25,37.293 101.309,35.369 102.797,33.738C103.467,33.004 104.106,32.276 104.807,31.572C104.854,31.524 105.34,30.99 105.476,31.12C105.503,31.145 104.213,32.72 104.129,32.857C103.399,34.051 103.101,35.45 103.022,36.831C102.763,41.366 104.346,45.743 106.019,49.901C106.551,51.224 107.069,52.872 107.802,54.141C108.009,54.5 108.63,54.233 109.026,54.357C110.158,54.71 111.304,55.031 112.438,55.384C115.992,56.488 119.651,57.4 123.162,58.626C124.866,59.221 129.338,60.123 130.146,62.158C130.908,64.078 129.487,66.498 128.598,68.055C125.356,73.735 120.782,76.78 114.231,76.369C110.811,76.154 107.38,73.912 104.619,72.063C103.543,71.342 102.484,70.64 101.425,69.895C101.402,69.879 100.565,69.318 100.55,69.331C100.482,69.391 100.915,69.771 100.939,69.799C101.279,70.19 101.615,70.564 101.889,71.011C102.582,72.14 103.177,73.347 103.685,74.567C105.248,78.318 108.561,83.024 112.609,84.371C114.532,85.01 116.859,84.906 118.866,84.825C123.334,84.646 128.073,82.123 132.022,80.21C134.563,78.979 137.152,77.958 139.749,76.858C141.141,76.268 142.707,75.648 143.717,74.466C145.852,71.968 146.056,68.207 146.212,65.139C146.479,59.865 147.62,53.473 144.276,49.018C142.571,46.746 138.996,45.523 136.47,44.48C135.364,44.023 134.025,43.778 133.181,42.861C132.305,41.91 132.931,38.579 132.931,37.485C132.931,34.56 133.35,29.704 135.297,27.232C136.143,26.158 137.423,25.593 138.368,24.642C139.083,23.925 139.612,21.959 140.408,21.533C140.448,21.512 141.111,23.252 141.139,23.318C141.629,24.506 142.28,25.645 142.873,26.784C144.873,30.624 146.795,36.349 151.519,37.527C152.68,37.816 153.969,37.521 155.158,37.6C161.108,37.992 167.083,37.852 173.051,37.852C174.271,37.852 175.222,37.806 176.41,37.952C179.942,38.387 181.275,39.906 183.419,42.528C183.771,42.958 184.745,43.644 184.934,44.172C185.497,45.751 184.517,48.452 184.451,50.091C184.223,55.762 185.146,62.021 182.44,67.235C181.315,69.403 179.794,71.511 177.541,72.563C176.742,72.936 175.917,73.246 175.117,73.61C175.116,73.61 174.143,73.961 174.217,74.011C175.063,74.59 178.186,74.26 179.153,74.115C185.325,73.188 187.652,68.038 190.115,63.164C192.424,58.593 193.555,53.822 195.295,49.059C196.242,46.467 198.643,44.376 198.228,41.552C197.492,36.544 194.173,30.826 190.438,27.389C188.718,25.808 186.288,24.964 185.131,22.82C183.993,20.708 184.151,17.314 184.403,14.933C184.538,13.653 185.894,12.574 186.815,11.838C189.713,9.521 193.239,8.732 196.451,7.052C196.628,6.96 196.436,6.653 196.451,6.454C196.484,6.027 196.728,5.48 196.888,5.078C197.434,3.708 197.778,2.262 198.375,0.907C198.598,0.402 199.141,-0.375 199.141,-0.929" style="fill:rgb(164,164,164);"/>
</svg>
