<?xml version="1.0" standalone="no"?>
<!DOCTYPE svg PUBLIC "-//W3C//DTD SVG 1.1//EN" "http://www.w3.org/Graphics/SVG/1.1/DTD/svg11.dtd">
<svg width="100%" height="100%" viewBox="0 0 200 200" version="1.1" xmlns="http://www.w3.org/2000/svg" xmlns:xlink="http://www.w3.org/1999/xlink" xml:space="preserve" style="fill-rule:evenodd;clip-rule:evenodd;stroke-linecap:round;stroke-linejoin:round;stroke-miterlimit:1.41421;">
    <path d="M200.003,144.514C193.273,138.347 186.532,132.974 178.882,127.961C169.227,121.634 156.732,116.951 145.511,114.46C143.696,114.057 139.415,114.873 138.468,114.575C136.09,113.827 133.282,114.032 130.357,113.9C125.43,113.678 120.557,113.24 115.62,113.24C110.403,113.24 105.826,113.832 100.77,114.364C98.764,114.575 95.619,115.005 93.873,116.139C92.787,116.845 95.251,121.64 95.499,122.51C96.979,127.704 97.812,133.319 97.332,138.747C96.663,146.313 91.571,152.69 84.256,154.973C77.558,157.063 70.147,155.801 63.417,155.801C62.812,155.801 64.79,156.215 65.23,155.801C65.762,155.301 66.301,153.811 66.686,153.183C68.423,150.348 70.045,147.462 71.53,144.486C73.814,139.908 75.072,132.731 71.623,128.296C70.505,126.859 68.738,126.279 67.607,125.039C67.462,124.879 66.051,125.023 65.839,125.039C63.628,125.204 61.232,126.031 59.15,126.763C53.375,128.794 48.543,132.322 43.446,135.621C40.274,137.674 36.466,140.144 34.706,143.649C32.237,148.567 31.092,155.493 31.648,161.083C31.728,161.889 31.984,163.905 32.618,164.539C32.822,164.742 34.88,165.847 34.825,165.902C34.597,166.13 33.385,165.549 33.205,165.474C31.194,164.635 29.219,163.198 27.511,161.887C19.995,156.12 15.458,148.85 12.378,139.855C7.692,126.167 10.197,114.524 15.269,101.181C16.876,96.954 18.363,92.798 20.524,88.813C24.991,80.576 32.617,75.215 41.011,71.539C48.056,68.453 57.065,65.439 64.921,67.02C68.518,67.745 71.944,69.578 75.227,71.132C77.227,72.078 81.232,72.952 82.676,74.717C83.474,75.693 84.029,78.007 84.811,79.225C87.318,83.128 89.927,86.964 92.824,90.587C94.172,92.273 94.914,93.619 95.863,95.522C96.134,96.067 96.252,96.675 96.587,97.179C96.744,97.413 97.054,98.165 97.054,97.883C97.054,96.865 99.395,96.992 100.318,96.579C104.505,94.701 108.513,92.386 112.908,90.979C121.977,88.075 130.554,88.6 139.909,88.245C144.335,88.078 148.693,87.22 153.123,87.038C155.397,86.944 157.885,87.397 160.136,87.038C163.14,86.558 166.118,85.167 169.054,84.376C177.396,82.129 186.559,80.718 195.14,79.575C197.967,79.198 200.794,78.85 203.641,78.85C204.622,78.85 205.603,78.85 206.583,78.85C206.972,78.85 207.747,79.309 207.747,78.92" style="fill:rgb(160,160,160);"/>
    <path d="M98.123,104.913C98.123,107.966 98.234,109.869 97.152,112.566C95.48,116.729 89.183,117.965 85.296,118.694C78.474,119.972 68.478,120.758 63.211,125.947" style="fill:none;stroke-width:2px;stroke:black;"/>
    <path d="M67.246,155.602C72.01,154.645 75.707,152.762 80.137,150.855C83.925,149.224 88.518,147.698 89.105,142.979C89.766,137.659 85.909,131.626 83.97,126.799C83.253,125.013 82.107,123.255 80.745,121.893C80.361,121.509 78.895,119.887 78.895,120.018" style="fill:none;stroke-width:2px;stroke:black;"/>
    <path d="M55.074,99.723C57.002,97.825 57.444,97.227 59.846,97.227" style="fill:none;stroke-width:2px;stroke:black;"/>
    <path d="M32.998,103.118C34.603,100.723 34.683,99.538 37.072,99.538" style="fill:none;stroke-width:2px;stroke:black;"/>
    <path d="M42.826,83.114C43.204,82.031 43.487,80.91 43.961,79.865C44.296,79.124 47.54,79.476 48.36,79.476" style="fill:none;stroke-width:2px;stroke:black;"/>
    <path d="M130.302,103.861C131.296,103.861 132.294,104.257 133.15,104.257" style="fill:none;stroke-width:2px;stroke:black;"/>
    <path d="M155.039,98.892C155.27,96.505 154.73,95.687 156.833,95.687" style="fill:none;stroke-width:2px;stroke:black;"/>
    <path d="M113.528,99.297C114.057,98.034 114.438,95.72 115.924,95.72" style="fill:none;stroke-width:2px;stroke:black;"/>
    <path d="M173.61,107.195C173.491,106.92 171.64,103.541 172.246,102.25C172.565,101.572 175.417,101.15 175.417,100.978" style="fill:none;stroke-width:2px;stroke:black;"/>
    <path d="M136.722,92.642C136.796,92.026 136.824,91.402 136.944,90.793C137.034,90.338 138.878,89.965 139.059,90.508" style="fill:none;stroke-width:2px;stroke:black;"/>
    <path d="M185.367,89.592C186.746,87.36 187.245,87.46 189.379,87.46" style="fill:none;stroke-width:2px;stroke:black;"/>
</svg>
