<?xml version="1.0" standalone="no"?>
<!DOCTYPE svg PUBLIC "-//W3C//DTD SVG 1.1//EN" "http://www.w3.org/Graphics/SVG/1.1/DTD/svg11.dtd">
<svg width="100%" height="100%" viewBox="0 0 200 200" version="1.1" xmlns="http://www.w3.org/2000/svg" xmlns:xlink="http://www.w3.org/1999/xlink" xml:space="preserve" style="fill-rule:evenodd;clip-rule:evenodd;stroke-linecap:round;stroke-linejoin:round;stroke-miterlimit:1.41421;">
    <path d="M205.481,85.756C199.087,85.925 193.006,84.348 186.649,83.994C176.866,83.449 167.109,83.506 157.313,83.506C152.03,83.506 146.678,83.741 141.412,83.38C139.59,83.255 137.717,83.38 135.889,83.38C135.34,83.38 134.791,83.38 134.242,83.38C134.043,83.38 133.459,83.399 133.479,83.38C133.824,83.035 133.084,81.157 133.021,80.785C132.441,77.362 132.135,73.926 131.804,70.471C130.786,59.818 131.283,41.045 118.135,37.677C116.294,37.205 114.22,37.448 112.338,37.448C110.743,37.448 109.068,38.248 107.651,38.954C105.587,39.982 103.279,41.221 102.011,43.229C98.779,48.347 100.193,55.574 100.112,61.237C100.102,61.934 98.713,61.078 98.059,60.838C95.78,60.003 95.863,59.995 93.678,58.98C88.837,56.731 84.013,54.312 79.078,52.28C68.786,48.042 56.141,47.763 45.367,50.445C42.035,51.274 37.845,52.238 35.211,54.59C32.961,56.599 29.353,61.818 31.484,64.99C33.833,68.487 39.08,70.509 42.771,72.023C45.79,73.261 49.055,73.812 52.09,74.947C52.934,75.262 53.958,75.57 54.827,75.735C55.345,75.832 56.874,75.849 56.379,76.029C55.142,76.477 53.155,75.833 51.91,75.769C49.97,75.669 47.996,75.769 46.054,75.769C43.816,75.769 41.641,75.773 39.417,76.033C37.924,76.207 36.611,76.523 35.19,76.957C32.632,77.741 30.238,79.231 27.946,80.586C24.746,82.477 17.342,85.004 21.176,90.116C21.817,90.971 22.617,91.72 23.454,92.378C24.491,93.196 25.564,93.945 26.734,94.559C29.602,96.066 32.508,97.463 35.514,98.664C39.783,100.37 44.661,101.821 49.295,101.821C49.731,101.821 48.405,101.793 47.992,101.93C47.083,102.232 46.19,102.794 45.301,103.148C43.233,103.97 41.176,104.803 39.117,105.654C37.517,106.315 35.906,106.872 34.327,107.589C29.967,109.569 19.467,113.633 21.125,120.288C21.751,122.798 24.803,124.391 26.899,125.322C33.692,128.342 41.958,128.719 49.181,130.181C53.31,131.017 57.343,132.099 61.419,133.124C65.855,134.239 71.818,132.206 76.111,131.469C83.864,130.139 91.637,128.752 99.436,127.725C106.777,126.757 114.452,126.98 121.679,125.283C128.618,123.654 132.171,119.54 136.532,114.588C136.81,114.272 139.559,114.719 139.694,114.736C142.308,115.067 144.928,115.3 147.539,115.612C157.152,116.762 166.908,118.615 176.183,121.424C179.624,122.466 182.912,124.005 186.374,124.992C190.809,126.258 195.312,126.947 199.689,128.185C200.811,128.502 206.017,130.141 205.47,130.25" style="fill:rgb(162,162,162);"/>
    <path d="M91.122,105.834C90.742,102.803 90.267,99.69 90.137,96.625C90.014,93.754 90.137,90.847 90.137,87.972C90.137,82.517 90.764,76.567 93.515,71.7C94.445,70.054 95.928,68.857 97.011,67.332C97.527,66.604 99.988,62.395 100.839,62.395" style="fill:none;stroke-width:2px;stroke:black;"/>
    <path d="M51.403,110.545C51.304,104.045 50.816,97.254 51.758,90.801C52.247,87.447 53.523,84.093 54.411,80.819C54.58,80.195 54.73,79.566 54.881,78.938C55.171,77.723 55.197,77.814 55.548,76.533C55.739,75.835 56.064,71.209 57.39,71.209" style="fill:none;stroke-width:2px;stroke:black;"/>
</svg>
