<?xml version="1.0" standalone="no"?>
<!DOCTYPE svg PUBLIC "-//W3C//DTD SVG 1.1//EN" "http://www.w3.org/Graphics/SVG/1.1/DTD/svg11.dtd">
<svg width="100%" height="100%" viewBox="0 0 200 200" version="1.1" xmlns="http://www.w3.org/2000/svg" xmlns:xlink="http://www.w3.org/1999/xlink" xml:space="preserve" style="fill-rule:evenodd;clip-rule:evenodd;stroke-linecap:round;stroke-linejoin:round;stroke-miterlimit:1.41421;">
    <path d="M201.896,52.24C191.338,53.221 180.279,55.789 170.459,59.871C167.19,61.23 162.058,63.051 160.452,66.608C157.904,72.254 157.861,79.609 157.216,85.705C156.969,88.031 156.775,90.339 156.591,92.658C156.567,92.96 156.24,95.767 156.077,95.643C148.003,89.492 140.743,82.424 132.45,76.478C126.465,72.186 120.75,67.548 114.744,63.294C110.524,60.304 106.33,57.246 102.068,54.317C98.599,51.934 94.915,49.92 91.357,47.678C79.995,40.516 69.627,36.54 57.003,32.746C53.663,31.743 47.999,29.015 45.023,31.773C37.192,39.03 32.509,49.938 28.728,59.723C21.773,77.724 19.145,95.881 19.145,115.111C19.145,123.004 18.744,130.917 19.99,138.73C21.855,150.42 26.218,162.219 32.446,172.26C34.515,175.596 36.407,179.022 38.581,182.289C39.188,183.203 39.756,184.123 40.32,185.065C40.645,185.608 41.362,187.284 41.362,186.651C41.362,185.317 39.853,182.908 39.615,181.36C38.423,173.613 36.166,166.043 35.421,158.226C33.742,140.622 36.056,124.033 43.175,107.916C43.531,107.108 43.175,105.129 43.175,104.28C43.175,101.783 42.989,99.276 43.424,96.807C44.889,88.503 47.585,80.62 50.607,72.771C51.792,69.692 53.253,64.899 55.438,62.459C56.031,61.797 56.883,63.496 57.637,63.968C61.002,66.076 64.114,68.42 67.333,70.761C80.216,80.131 91.497,91.74 103.46,102.214C106.825,105.16 114.541,106.327 118.442,107.406C126.063,109.513 133.829,110.947 141.475,112.937C145.342,113.944 150.234,116.22 154.392,115.934C158.186,115.674 162.56,113.083 166.024,111.577C166.92,111.187 169.502,109.557 170.673,110.161C171.21,110.438 171.779,112.005 172.122,112.478C173.301,114.104 174.737,115.556 176.217,116.919C180.748,121.092 185.221,123.406 191.278,124.366C194.521,124.88 197.556,125.06 200.887,125.349C201.055,125.364 203.823,125.699 203.823,125.55" style="fill:rgb(165,165,165);"/>
    <path d="M17.791,137.088C21.823,136.479 25.776,140.135 29.983,140.135C30.61,140.135 32.071,140.426 32.645,140.135C34.482,139.202 35.904,137.749 37.514,136.459" style="fill:none;stroke-width:2px;stroke:black;"/>
    <path d="M37.296,125.073C39.389,127.465 41.444,129.736 43.938,131.701C44.13,131.853 45.889,133.361 46.315,132.967C46.875,132.449 46.135,128.738 46.032,128.25C45.113,123.891 44.535,119.418 43.128,115.161C42.802,114.172 41.298,110.901 42.298,109.885C42.646,109.532 43.463,110.205 43.768,110.371C45.388,111.251 46.925,112.254 48.402,113.359C48.472,113.412 50.136,114.932 50.275,114.805C50.92,114.209 49.486,110.717 49.314,110.035C48.137,105.355 44.744,100.333 44.744,95.561C44.744,94.098 44.855,92.583 44.744,91.126C44.692,90.447 43.888,89.108 44.569,89.09C45.086,89.076 45.831,89.974 46.25,90.234C47.794,91.194 49.461,92.08 50.93,93.133C51.096,93.252 52.744,94.464 52.922,94.294C53.382,93.854 53.016,91.378 53.016,90.837C53.016,86.978 53.239,82.925 52.023,79.217C51.715,78.28 50.658,76.826 49.907,76.45C49.393,76.193 47.998,75.36 48.572,75.36" style="fill:none;stroke-width:2px;stroke:black;"/>
    <path d="M56.778,62.459C56.523,59.156 56.605,54.732 55.226,51.974C53.125,47.772 50.635,43.576 48.266,39.545C47.59,38.395 46.463,33.032 47.821,32.351" style="fill:none;stroke-width:2px;stroke:black;"/>
    <path d="M171.238,108.327C169.992,108.059 168.725,107.886 167.488,107.577C166.925,107.436 165.772,105.112 165.417,104.548C163.517,101.534 160.059,99.212 159.162,95.646" style="fill:none;stroke-width:2px;stroke:black;"/>
    <path d="M173.526,98.267C170.349,96.256 169.68,94.829 167.793,91.743C165.234,87.556 162.618,83.73 160.424,79.341C159.575,77.642 158.128,75.113 158.128,73.172" style="fill:none;stroke-width:2px;stroke:black;"/>
    <path d="M164.032,93.087C161.925,92.329 158.94,91.389 157.257,89.706C156.853,89.302 155.691,87.586 155.209,87.586" style="fill:none;stroke-width:2px;stroke:black;"/>
</svg>
