<?xml version="1.0" standalone="no"?>
<!DOCTYPE svg PUBLIC "-//W3C//DTD SVG 1.1//EN" "http://www.w3.org/Graphics/SVG/1.1/DTD/svg11.dtd">
<svg width="100%" height="100%" viewBox="0 0 200 200" version="1.1" xmlns="http://www.w3.org/2000/svg" xmlns:xlink="http://www.w3.org/1999/xlink" xml:space="preserve" style="fill-rule:evenodd;clip-rule:evenodd;stroke-linecap:round;stroke-linejoin:round;stroke-miterlimit:1.41421;">
    <path d="M200.124,53.402C183.813,53.402 167.362,52.736 151.081,53.668C136.575,54.498 122.369,57.211 108.153,59.991C96.318,62.306 85.21,65.215 74.169,70.028C68.408,72.54 63.067,75.846 57.663,79.01C53.407,81.502 48.866,83.686 44.935,86.697C41.942,88.989 38.831,91.204 36.156,93.874C34.607,95.419 33.795,97.623 32.055,98.143C28.64,99.165 25.481,101.898 22.794,104.147C22.594,104.314 20.215,106.1 20.304,106.186C21.428,107.274 28.615,108.122 29.417,108.317C38.557,110.544 47.706,112.73 56.842,114.969C71.658,118.599 86.666,121.701 101.323,125.927C104.295,126.784 106.796,128.679 109.664,129.836C123.062,135.242 138.635,140.058 153.112,140.903C167.766,141.758 182.58,143.5 197.214,144.867C199.128,145.045 201.043,145.228 202.959,145.395C206.319,145.687 209.724,146.167 213.057,146.709C214.171,146.89 215.302,147.013 216.407,147.257C216.983,147.384 218.601,148.025 218.126,147.676C217.799,147.435 217.552,147.101 217.265,146.814" style="fill:rgb(160,160,160);"/>
    <path d="M54.679,85.26C54.901,86.715 55.068,88.179 55.345,89.625C56.06,93.356 57.545,96.988 57.055,100.87C56.922,101.928 56.117,105.974 55.239,104.659" style="fill:none;stroke-width:2px;stroke:black;"/>
</svg>
