<?xml version="1.0" standalone="no"?>
<!DOCTYPE svg PUBLIC "-//W3C//DTD SVG 1.1//EN" "http://www.w3.org/Graphics/SVG/1.1/DTD/svg11.dtd">
<svg width="100%" height="100%" viewBox="0 0 200 200" version="1.1" xmlns="http://www.w3.org/2000/svg" xmlns:xlink="http://www.w3.org/1999/xlink" xml:space="preserve" style="fill-rule:evenodd;clip-rule:evenodd;stroke-linecap:round;stroke-linejoin:round;stroke-miterlimit:1.41421;">
    <path d="M199.549,143.772C192.384,143.861 185.639,143.057 178.537,142.793C172.813,142.58 166.864,142.344 161.275,140.881C155.306,139.318 151.028,134.852 145.47,132.869C143.354,132.114 140.152,132.128 137.86,131.607C132.451,130.377 127.392,128.072 121.883,127.15C116.089,126.179 109.486,127.015 103.589,127.015C100.773,127.015 97.733,126.771 94.978,127.491C89.858,128.83 84.951,132.7 80.585,135.318C70.838,141.162 61.622,148.076 51.1,152.495C43.33,155.757 31.279,158.418 24.067,152.273C22.604,151.027 21.428,148.192 20.382,146.533C17.395,141.8 15.648,136.743 13.236,131.755C10.013,125.09 8.049,120.544 8.764,112.875C9.106,109.215 10.031,105.897 11.542,102.578C11.985,101.605 12.194,99.227 13.605,99.462C16.314,99.913 16.638,104.823 17.924,106.625C19.738,109.167 21.944,110.844 23.92,113.165C28.849,118.953 33.056,123.658 41.136,120.547C42.114,120.17 42.991,118.566 43.651,117.826C45.47,115.785 47.272,113.743 49.082,111.694C53.581,106.601 58.745,101.093 61.961,95.023C64.392,90.434 65.728,85.343 68.29,80.854C69.51,78.716 71.429,76.907 72.947,74.978C75.497,71.737 77.978,68.286 81.049,65.524C83.307,63.494 86.624,62.304 89.269,60.933C100.666,55.025 111.484,53.242 124.098,53.242C138.291,53.242 151.747,59.373 164.635,64.645C170.387,66.998 175.598,70.292 182.053,70.617C186.882,70.861 192.605,71.265 197.337,70.072C198.155,69.865 201.682,68.833 201.147,68.032" style="fill:rgb(196,192,196);"/>
    <path d="M200.368,133.551C186.791,133.551 173.224,129.193 160.452,124.872C151.22,121.748 141.927,120.302 132.806,117.984C123.23,115.55 112.341,112.141 102.273,113.141C96.319,113.733 89.103,117.789 83.802,119.831C73.278,123.884 62.385,127.72 52.137,132.319C47.061,134.597 42.609,137.836 37.322,139.695C35.668,140.277 32.789,141.573 30.949,141.247C28.727,140.853 25.84,136.774 24.361,135.295C21.627,132.561 18.449,129.879 16.585,126.452C14.65,122.893 13.84,118.127 13.14,114.161C12.708,111.713 12.358,109.406 12.358,106.899C12.358,106.41 12.066,104.681 12.587,104.417" style="fill:none;stroke-width:2px;stroke:black;"/>
    <path d="M29.35,147.811C30.491,147.599 31.87,146.462 32.777,147.186C34.674,148.702 33.979,149.734 31.85,149.89C30.372,149.999 28.315,150.186 26.944,149.607C26.122,149.26 25.54,146.765 26.44,146.462" style="fill:none;stroke-width:2px;stroke:black;"/>
    <path d="M52.486,140.681C53.661,140.102 54.776,139.349 56.041,139.007C56.733,138.82 57.367,138.58 58.095,138.58C58.853,138.58 60.027,138.351 60.762,138.58C61.9,138.934 60.692,141.112 60.328,141.476C57.983,143.815 51.326,146.431 52.743,140.73" style="fill:none;stroke-width:2px;stroke:black;"/>
    <path d="M79.156,128.265C80.176,127.619 81.197,126.974 82.216,126.326C84.182,125.074 85.491,126.642 84.763,128.589C84.433,129.473 80.541,134.724 79.208,132.95C78.726,132.309 79.04,130.745 79.04,129.945" style="fill:none;stroke-width:2px;stroke:black;"/>
    <path d="M103.915,123.261C105.529,123.361 105.815,122.944 106.324,124.227C106.531,124.749 107.66,126.021 107.256,125.63C102.291,120.831 112.602,120.732 115.112,122.377C115.89,122.888 117.872,125.159 117.133,126.26C116.555,127.122 114.088,126.984 113.132,126.984" style="fill:none;stroke-width:2px;stroke:black;"/>
    <path d="M135.856,128.406C136.316,128.928 138.791,127.936 139.399,127.897C142.007,127.729 149.475,127.473 151.087,130.698C151.53,131.583 149.487,132.033 149.089,132.142C146.772,132.776 143.292,133.038 140.906,132.559C138.9,132.156 137.261,129.247 135.382,129.247" style="fill:none;stroke-width:2px;stroke:black;"/>
    <path d="M165.827,135.32C171.076,135.219 178.044,134.12 183.117,135.643C183.932,135.888 184.847,136.121 185.612,136.504C188.365,137.881 188.195,139.406 185.336,140.944C182.866,142.273 179.994,142.553 177.22,142.362C174.917,142.204 171.198,141.052 169.49,139.344C168.828,138.682 167.921,136.195 166.788,136.195" style="fill:none;stroke-width:2px;stroke:black;"/>
</svg>
