<?xml version="1.0" standalone="no"?>
<!DOCTYPE svg PUBLIC "-//W3C//DTD SVG 1.1//EN" "http://www.w3.org/Graphics/SVG/1.1/DTD/svg11.dtd">
<svg width="100%" height="100%" viewBox="0 0 200 200" version="1.1" xmlns="http://www.w3.org/2000/svg" xmlns:xlink="http://www.w3.org/1999/xlink" xml:space="preserve" style="fill-rule:evenodd;clip-rule:evenodd;stroke-linecap:round;stroke-linejoin:round;stroke-miterlimit:1.41421;">
    <g transform="matrix(1,0,0,1,-1,1)">
        <path d="M43.637,187.967C35.694,178.609 26.344,170.653 19.693,160.209C17.233,156.347 16.534,152.319 15.327,148.052C14.582,145.421 12.885,143.077 11.895,140.533C9.599,134.636 7.712,128.491 6.755,122.223C6.049,117.596 6.539,112.656 6.539,107.996C6.539,93.343 8.78,81.31 13.617,67.553C16.735,58.686 19.887,49.623 25.924,42.259C26.869,41.107 28.312,40.364 29.547,39.633C33.662,37.197 37.357,33.466 41.469,30.862C49.3,25.903 57.875,20.894 67.065,18.977C75.911,17.131 85.172,17.668 94.164,17.668C99.898,17.668 106.223,17.014 111.868,18.129C122.049,20.14 132.475,25.113 142.005,29.083C151.756,33.146 163.182,38.485 171.376,45.333C173.996,47.523 174.68,50.658 176.152,53.697C178.285,58.096 180.08,62.656 182.333,67.003C185.081,72.303 188.645,77.157 191.043,82.647C192.512,86.009 193.528,90.101 195.816,92.898C196.892,94.213 195.816,96.294 195.816,97.992C195.816,104.619 196.024,111.21 196.237,117.826C196.558,127.799 198.265,137.769 197.493,147.786C197.143,152.336 194.679,156.091 192.379,159.829C189.998,163.7 187.844,167.938 184.59,171.164C179.422,176.288 172.332,178.851 165.526,180.887C163.13,181.604 160.033,182.477 157.96,184.022C156.891,184.818 154.944,187.128 153.93,187.128" style="fill:rgb(206,206,206);"/>
    </g>
</svg>
