<?xml version="1.0" standalone="no"?>
<!DOCTYPE svg PUBLIC "-//W3C//DTD SVG 1.1//EN" "http://www.w3.org/Graphics/SVG/1.1/DTD/svg11.dtd">
<svg width="100%" height="100%" viewBox="0 0 200 200" version="1.1" xmlns="http://www.w3.org/2000/svg" xmlns:xlink="http://www.w3.org/1999/xlink" xml:space="preserve" style="fill-rule:evenodd;clip-rule:evenodd;stroke-linecap:round;stroke-linejoin:round;stroke-miterlimit:1.41421;">
    <path d="M42.655,187.784C36.598,187.255 30.409,186.742 24.329,187.355C21.311,187.66 18.246,189.556 15.298,189.776C14.92,189.804 16.863,186.051 16.911,185.966C18.788,182.676 21.604,179.762 24.135,176.979C24.832,176.213 25.542,175.438 26.273,174.704C26.67,174.307 28.06,173.549 27.499,173.549C24.94,173.549 22.382,173.549 19.823,173.549C18.793,173.549 12.932,174.287 12.378,173.453C11.629,172.327 13.096,169.821 13.565,168.952C15.138,166.036 17.086,162.824 19.74,160.785C21.03,159.794 23.986,159.257 24.996,158.118C25.442,157.615 23.639,158.021 23.004,157.799C21.61,157.312 20.209,156.359 18.987,155.546C14.831,152.78 10.441,149.421 8.158,144.863C6.194,140.944 15.635,144.228 13.553,139.021C11.774,134.57 7.617,131.401 5.495,127.232C5.286,126.822 3.201,124.2 3.983,123.457C4.774,122.706 7.903,123.444 8.947,123.352C9.117,123.337 10.54,120.919 10.578,120.855C11.863,118.714 12.675,116.456 12.923,113.973C13.551,107.684 10.848,104.672 11.493,105.503C11.5,105.511 11.844,99.555 11.564,96.143C10.643,84.943 8.317,71.943 15.161,62.259C16.336,60.598 17.596,58.031 19.509,57.052C19.783,56.912 19.68,58.794 19.68,59.013C19.68,60.271 19.602,61.531 19.82,62.775C20.192,64.89 23.456,67.455 25.728,66.319C26.642,65.862 25.601,64.28 25.557,63.259C25.379,59.136 25.507,54.905 25.659,50.786C26.067,39.749 30.227,25.968 37.181,17.141C39.251,14.513 39.479,17.106 42.177,18.94C44.647,20.62 47.233,22.105 49.682,23.82C49.835,23.927 55.047,27.591 55.23,27.223C55.99,25.693 55.054,22.72 55.489,20.975C56.43,17.193 62.678,12.625 66.549,12.236C69.915,11.897 68.087,16.898 71.315,15.625C80.911,11.84 88.201,4.654 99.038,3.783L103.721,3.783C105.7,3.783 105.136,4.964 103.529,6.117C101.122,7.844 99.248,9.982 97.495,12.319C97.358,12.501 94.596,16.238 95.022,16.46C95.692,16.808 98.282,16.245 98.848,16.102C102.01,15.3 105.168,14.127 108.262,13.103C116.87,10.255 123.782,7.939 132.706,10.096C140.635,12.013 148.099,15.832 155.354,19.458C157.953,20.757 160.356,22.021 162.768,23.629C163.672,24.231 164.828,24.787 165.685,25.436C166.236,25.854 168.107,26.579 167.415,26.579C164.502,26.579 161.692,24.75 158.633,24.75C157.381,24.75 154.817,23.988 155.073,25.87C155.251,27.178 158.605,28.812 159.568,29.452C162.652,31.501 166.179,32.757 169.443,34.471C170.497,35.025 171.576,35.586 172.629,36.147C173.269,36.489 175.209,37.446 174.514,37.236C173.174,36.83 171.847,35.605 170.827,34.672C170.224,34.12 169.256,32.761 168.543,32.397C168.511,32.381 169.893,35.716 170.033,36.017C171.296,38.741 172.63,41.596 174.331,44.083C176.274,46.925 178.546,50.74 180.88,53.154C183.71,56.079 187.829,57.663 190.098,61.4C191.477,63.672 190.647,67.088 190.647,69.592C190.647,76.483 190.324,83.44 191.069,90.301C191.463,93.925 192.041,97.544 192.862,101.091C193.085,102.056 193.292,103.024 193.501,103.992C193.634,104.608 194.022,106.44 194.022,105.81C194.022,105.418 192.748,104.38 192.63,104.251C191.091,102.579 189.721,100.797 187.935,99.368C187.831,99.285 186.384,97.907 186.099,98.163C185.593,98.615 186.88,99.273 187.286,99.816C189.269,102.469 191.044,105.356 192.729,108.202C196.156,113.99 198.584,120.49 200.28,126.975C200.382,127.366 199.502,126.311 199.158,126.521C198.311,127.037 197.514,127.736 196.749,128.361C192.283,132.009 187.663,132.017 188.435,138.621C189.013,143.566 191.933,148.833 193.565,153.549C194.3,155.672 194.887,157.856 195.598,159.99C195.851,160.75 195.799,160.638 195.984,161.397C196.058,161.698 196.497,162.498 196.279,162.279C195.122,161.116 193.834,160.171 192.634,159.047C191.485,157.97 184.389,150.4 185.29,155.746C185.403,156.416 185.628,157.062 185.826,157.712C186.057,158.471 186.353,159.208 186.577,159.969C186.892,161.041 187.137,162.134 187.44,163.21C189.433,170.287 192.553,178.573 192.553,186.068C192.553,186.562 191.876,185.348 191.526,184.999C190.863,184.335 190.229,183.588 189.512,182.984C188.139,181.829 183.128,180.228 181.477,181.354C179.779,182.512 179.308,187.415 178.521,189.298C178.283,189.866 178.016,191.251 177.207,191.361C174.511,191.726 171.874,190.348 169.483,189.273C167.061,188.184 164.731,186.482 162.221,185.634C160.823,185.162 158.155,184.686 156.734,185.28C154.57,186.185 153.425,187.714 150.786,187.055C148.808,186.56 146.626,184.484 144.382,185.355C143.565,185.672 140.604,188.03 140.604,188.904" style="fill:rgb(166,166,166);"/>
</svg>
