<?xml version="1.0" standalone="no"?>
<!DOCTYPE svg PUBLIC "-//W3C//DTD SVG 1.1//EN" "http://www.w3.org/Graphics/SVG/1.1/DTD/svg11.dtd">
<svg width="100%" height="100%" viewBox="0 0 200 200" version="1.1" xmlns="http://www.w3.org/2000/svg" xmlns:xlink="http://www.w3.org/1999/xlink" xml:space="preserve" style="fill-rule:evenodd;clip-rule:evenodd;stroke-linecap:round;stroke-linejoin:round;stroke-miterlimit:1.41421;">
    <path d="M51.35,194.592C45.46,194.701 39.571,194.673 33.68,194.673C29.059,194.673 24.439,194.673 19.819,194.673C13.489,194.673 9.97,196.223 6.76,190.469C6.209,189.48 5.7,188.436 5.276,187.382C4.719,185.994 4.304,184.392 4.154,182.895C3.824,179.616 4.605,176.437 4.605,173.151C4.605,169.008 4.505,164.904 4.37,160.767C4.126,153.312 3.66,145.887 3.132,138.445C2.399,128.141 1.389,117.844 1.792,107.487C1.991,102.363 3.499,97.214 4.348,92.163C4.932,88.685 4.348,84.645 4.348,81.104C4.348,65.761 1.809,48.77 7.759,34.462C8.22,33.354 7.759,31.103 7.759,29.854C7.759,25.224 6.973,18.856 10.538,15.26C12.998,12.779 16.937,11.868 20.227,11.174C26.236,9.907 32.225,8.962 38.319,8.177C41.375,7.783 43.963,6.835 46.773,5.845C47.997,5.414 50.941,6.683 52.18,6.842C56.478,7.396 60.957,7.339 65.257,7.555C88.418,8.714 113.873,10.265 135.874,18.152C137.097,18.591 139.239,18.055 140.482,17.991C145.245,17.746 150.301,17.715 155.073,17.991C162.154,18.4 171.433,24.557 175.848,29.939C176.936,31.265 177.456,35.309 177.896,37.069C178.973,41.378 181.056,45.771 182.684,49.908C185.977,58.276 190.715,67.781 191.624,76.904C191.8,78.672 191.421,78.618 189.628,79.042C189.002,79.189 189.628,80.327 189.628,80.97C189.628,84.295 189.628,87.619 189.628,90.944C189.628,103.429 189.944,115.043 191.908,127.348C193.696,138.557 193.982,149.56 193.982,160.874C193.982,165.46 194.7,171.366 191.846,175.346C190.497,177.228 187.86,177.938 186.121,179.454C183.155,182.041 179.356,185.641 175.729,187.199C169.574,189.845 161.973,188.358 155.617,190.622C154.53,191.01 153.308,191.324 152.187,191.583C149.005,192.321 147.089,192.874 144.457,194.452C143.97,194.744 142.194,195.215 142.194,195.876" style="fill:rgb(184,184,184);"/>
</svg>
