<?xml version="1.0" standalone="no"?>
<!DOCTYPE svg PUBLIC "-//W3C//DTD SVG 1.1//EN" "http://www.w3.org/Graphics/SVG/1.1/DTD/svg11.dtd">
<svg width="100%" height="100%" viewBox="0 0 200 200" version="1.1" xmlns="http://www.w3.org/2000/svg" xmlns:xlink="http://www.w3.org/1999/xlink" xml:space="preserve" style="fill-rule:evenodd;clip-rule:evenodd;stroke-linecap:round;stroke-linejoin:round;stroke-miterlimit:1.41421;">
    <path d="M70.227,192.904C70.227,190.936 71.112,184.044 69.961,181.772C65.848,173.655 55.688,167.911 47.185,165.543C43.82,164.606 40.745,164.945 37.419,164.448C35.029,164.091 32.441,162.557 30.243,161.566C27.744,160.44 25.861,158.225 23.737,156.573C21.598,154.909 19.082,153.683 17.018,151.924C12.838,148.363 8.813,141.267 7.266,136.13C5.409,129.967 6.031,122.376 6.031,115.98C6.031,109.763 4.318,101.102 7.908,95.562C13.547,86.861 23.118,79.864 32.495,75.885C40.389,72.536 48.953,71.019 56.88,67.708C58.128,67.187 61.128,67.879 62.264,67.905C69.258,68.062 76.289,67.941 83.273,67.622C89.315,67.347 95.321,67.059 101.37,67.059C116.993,67.059 131.643,68.69 146.944,71.221C160.111,73.4 175.222,79.216 183.293,90.682C185.522,93.849 188.356,97.679 189.572,101.367C190.276,103.505 189.95,105.917 190.288,108.141C190.924,112.334 192.198,116.618 193.255,120.716C195.242,128.416 197.451,136.032 198.104,143.982C198.306,146.44 198.828,149.98 198.254,152.385C196.393,160.184 189.172,161.454 182.799,163.93C173.41,167.578 164.724,172.344 154.966,175.122C148.879,176.856 142.907,177.667 137.165,180.053C135.633,180.69 132.821,181.416 131.738,182.846C129.882,185.299 130.816,189.986 130.816,192.848" style="fill:rgb(184,184,184);"/>
</svg>
