<?xml version="1.0" standalone="no"?>
<!DOCTYPE svg PUBLIC "-//W3C//DTD SVG 1.1//EN" "http://www.w3.org/Graphics/SVG/1.1/DTD/svg11.dtd">
<svg width="100%" height="100%" viewBox="0 0 200 200" version="1.1" xmlns="http://www.w3.org/2000/svg" xmlns:xlink="http://www.w3.org/1999/xlink" xml:space="preserve" style="fill-rule:evenodd;clip-rule:evenodd;stroke-linecap:round;stroke-linejoin:round;stroke-miterlimit:1.41421;">
    <path d="M50.142,10.163C43.079,13.828 34.825,14.772 28.18,19.147C20.464,24.227 16.646,34.685 13.328,42.786C11.82,46.469 10.343,50.439 9.908,54.441C9.508,58.111 9.823,62.152 8.922,65.708C7.635,70.786 11.079,76.174 12.607,80.757C12.872,81.552 15.284,84.359 15.081,84.923C12.819,91.189 7.437,96.381 4.949,102.655C-2.19,120.66 0.661,141.987 13.259,156.871C20.043,164.886 29.127,170.745 39.461,172.906C46.996,174.482 54.977,174.27 62.436,175.937C68.677,177.333 74.512,179.784 80.919,180.749C92.437,182.483 104.117,182.408 115.73,182.408C122.505,182.408 129.325,182.151 136.077,182.818C138.414,183.049 141.989,184.858 144.18,184.612C148.032,184.18 152.06,181.812 155.54,180.323C162.052,177.537 168.383,175.121 174.264,171.113C180.909,166.586 185.991,159.914 191.257,153.969C193.252,151.716 197.639,148.056 198.376,144.982C199.76,139.214 197.565,131.35 196.508,125.674C195.317,119.278 193.792,113.037 192.128,106.75C191.065,102.737 190.635,98.897 188.276,95.451C184.747,90.294 178.639,85.59 173.122,82.635C172.64,82.377 167.174,80.747 167.109,80.516C166.491,78.309 168.052,75.241 168.818,73.257C170.901,67.86 173.209,62.535 175.24,57.129C176.173,54.644 177.45,52.171 178.158,49.62C181.206,38.637 176.372,30.563 170.132,21.947C166.766,17.3 162.046,11.572 156.025,10.443C129.567,5.478 103.723,6.311 76.721,6.311C74.808,6.311 72.895,6.311 70.982,6.311C64.767,6.311 59.761,6.329 54.488,8.926C53.79,9.27 50.32,10.53 50.32,11.276" style="fill:rgb(191,191,191);"/>
</svg>
