<?xml version="1.0" standalone="no"?>
<!DOCTYPE svg PUBLIC "-//W3C//DTD SVG 1.1//EN" "http://www.w3.org/Graphics/SVG/1.1/DTD/svg11.dtd">
<svg width="100%" height="100%" viewBox="0 0 200 200" version="1.1" xmlns="http://www.w3.org/2000/svg" xmlns:xlink="http://www.w3.org/1999/xlink" xml:space="preserve" style="fill-rule:evenodd;clip-rule:evenodd;stroke-linecap:round;stroke-linejoin:round;stroke-miterlimit:1.41421;">
    <path d="M64.102,192.852L57.117,192.852C56.677,192.852 54.664,193.167 54.318,192.852C53.208,191.841 57.117,189.936 54.078,188.668C49.874,186.914 44.473,187.799 40.689,184.99C39.638,184.209 40.139,183.156 39.536,182.199C38.431,180.443 37.241,178.843 35.958,177.215C35.108,176.135 34.174,175.236 33.273,174.219C33.233,174.173 31.884,172.892 31.904,172.885C33.191,172.439 35.368,173.2 36.405,173.637C36.873,173.834 35.395,173.439 34.941,173.211C33.982,172.729 33.121,172.15 32.102,171.785C30.265,171.128 25.573,170.809 24.237,169.473C23.465,168.701 27.481,165.354 26.564,163.496C25.097,160.525 18.857,161.144 16.195,160.565C15.042,160.314 17.57,158.164 17.622,158.082C17.907,157.634 16.728,157.51 16.298,157.198C14.742,156.069 11.819,155.918 10.589,154.746C9.344,153.562 12.292,149.383 12.622,148.876C15.738,144.098 20.132,139.436 22.654,134.316C22.824,133.971 20.649,133.666 20.543,133.651C19.176,133.455 12.804,133.615 12.223,131.759C11.024,127.93 18.222,126.489 19.233,123.525C19.756,121.992 13.337,121.014 12.858,119.254C12.13,116.582 18.899,113.247 20.805,112.021C21.299,111.703 23.273,111.068 23.531,110.565C23.577,110.475 22.196,108.465 22.078,108.268C21.054,106.563 17.894,103.015 19.708,100.826C21.055,99.2 23.217,97.872 24.999,96.725C25.004,96.722 28.481,94.864 27.967,94.52C24.583,92.247 19.403,95.023 16.113,93.658C15.756,93.509 16.831,91.8 16.878,91.714C17.998,89.637 18.97,87.547 19.818,85.349C20.154,84.477 21.662,82.823 20.736,82.699C20.619,82.684 18.763,84.661 18.725,84.695C16.748,86.514 14.643,88.198 12.658,90C12.583,90.068 10.475,92.12 10.129,91.605C9.222,90.258 10.281,86.407 10.848,85.159C12.988,80.445 15.519,74.492 19.9,71.555C20.113,71.412 19.375,71.629 19.129,71.555C18.554,71.382 17.783,70.78 17.281,70.445C16.281,69.778 10.081,67.366 11.62,65.215C16.634,58.206 25.12,55.026 31.06,49.355C31.237,49.187 28.868,48.374 28.676,48.289C27.276,47.668 26.559,46.511 27.604,45.035C33.167,37.18 43.54,32.502 52.204,29.172C52.761,28.958 51.02,28.977 50.46,28.773C49.175,28.306 47.849,28.065 46.568,27.633C46.388,27.572 44.621,27.006 44.658,26.987C62.341,17.508 82.18,18.444 101.387,16.312C107.338,15.652 113.357,14.783 119.339,14.478C121.298,14.378 123.247,14.236 125.197,13.977C125.895,13.884 126.566,13.699 127.257,13.596C127.543,13.554 128.411,13.5 128.121,13.5C127.201,13.5 126.211,13.403 125.297,13.5C125.258,13.504 123.941,13.912 124.25,13.965C132.345,15.347 142.393,14.208 149.988,17.832C150.051,17.862 141.756,19.46 142.889,22.298C143.841,24.683 147.079,26.71 148.889,28.355C155.387,34.261 163.709,38.945 169.062,45.826C173.463,51.481 177.264,57.734 181.185,63.736C182.338,65.501 183.484,67.22 184.513,69.06C185.158,70.214 185.054,70.085 185.681,71.115C185.904,71.48 186.702,72.104 186.297,72.242C185.313,72.577 184.399,71.396 183.461,70.951C180.847,69.71 178.32,68.057 175.546,67.19C175.428,67.153 171.897,66.136 171.893,66.357C171.878,67.315 175.585,70.089 176.382,70.871C180.888,75.296 185.424,79.793 188.875,85.122C189.008,85.328 191.369,89.827 191.329,89.837C190.055,90.155 189.194,89.244 188.025,89.121C186.8,88.992 188.003,91.589 187.854,92.811C187.493,95.765 186.913,98.664 186.566,101.615C185.756,108.509 183.817,114.202 184.721,120.849C184.992,122.835 185.469,124.786 185.716,126.777C185.826,127.664 187.074,129.245 186.197,129.414C185.137,129.618 184.167,128.275 183.577,127.833C181.107,125.984 178.686,124.068 176.303,122.111C175.345,121.323 174.104,120.333 173.065,119.587C172.416,119.121 171.21,117.66 170.97,118.422C170.589,119.634 172.403,121.887 172.879,122.885C175.089,127.524 176.864,132.36 178.609,137.187C182.579,148.167 184.478,157.677 184.478,169.064C184.478,173.643 183.593,179.697 180.999,183.598C180.401,184.496 178.412,181.721 178.234,181.526C177.204,180.392 172.863,175.424 170.766,176.457C170.486,176.595 170.164,178.971 170.12,179.158C169.767,180.657 168.625,188.003 166.473,188.408C165.456,188.599 164.705,186.993 164.24,186.414C162.373,184.095 159.869,180.762 156.638,180.437C151.145,179.886 146.05,184.694 141.975,187.862C140.878,188.715 139.806,189.569 138.676,190.375C137.97,190.878 137.063,192.661 136.594,191.932C135.917,190.882 132.408,191.759 130.917,191.546C128.164,191.152 127.752,188.462 125.605,187.557C124.456,187.073 122.316,187.14 121.121,187.31C116.632,187.949 113.558,191.758 108.878,192.122C107.007,192.268 106.273,191.323 104.587,190.766C102.347,190.026 99.038,190.001 96.75,190.509C95.048,190.887 91.857,193.286 89.971,192.634C88.509,192.128 89.351,190.341 87.126,190.758C84.446,191.26 81.331,195.288 79.383,197.108C79.24,197.242 75.659,199.701 75.617,199.457C75.176,196.866 78.483,194.516 79.595,192.38C79.812,191.964 81.126,190.571 80.861,189.953C80.808,189.83 76.323,189.74 75.898,189.68C71.932,189.112 69.367,187.955 65.988,190.365C64.572,191.374 61.986,194.755 62.03,194.777" style="fill:rgb(198,198,198);"/>
    <path d="M55.431,102.505C53.989,105.399 52.311,108.208 51.427,111.322C51.201,112.12 49.999,116.293 49.999,115.676" style="fill:rgb(198,198,198);stroke-width:1px;stroke:black;"/>
    <path d="M42.397,87.099C42.016,89.637 41.776,91.662 41.776,94.115C41.776,94.373 41.776,93.597 41.776,93.339C41.776,92.376 41.776,91.413 41.776,90.451C41.776,90.054 41.484,88.994 41.776,89.262C42.805,90.206 43.835,93.505 45.999,92.298C46.621,91.951 47.298,90.89 47.72,90.324C48.041,89.895 48.748,88.69 48.878,89.21C49.168,90.374 49.185,92.942 51.482,91.496C53.562,90.186 54.88,86.615 57.214,85.827" style="fill:rgb(198,198,198);stroke-width:1px;stroke:black;"/>
    <path d="M116.812,52.447C119.681,56.643 122.154,60.962 125.253,64.921C125.927,65.782 126.838,67.692 127.98,68.165C128.415,68.345 127.895,65.272 128.266,65.023C128.615,64.789 130.711,64.921 131.122,65.023C133.411,65.593 135.115,67.491 137.56,67.932C137.856,67.986 139.447,68.327 139.698,68.055C142.016,65.533 139.532,59.614 141.945,57.13C143.004,56.041 146.589,56.943 147.82,57.353C147.858,57.366 150.517,58.13 150.527,58.052C151.212,53.072 149.154,47.349 150.349,42.543" style="fill:rgb(198,198,198);stroke-width:1px;stroke:black;"/>
    <path d="M130.699,136.928C131.133,139.299 131.367,141.704 131.824,144.07C131.997,144.965 132.343,146.18 132.566,147.102C132.675,147.551 132.908,148.909 132.908,148.447C132.908,147.564 135.24,143.832 135.262,143.874C135.541,144.424 134.801,150.973 135.867,150.783C139.01,150.223 140.521,144.219 143.346,142.797C143.796,142.57 144.93,144.707 145.376,145.004C146.865,145.995 148.705,146.109 150.462,145.9C152.112,145.704 153.535,143.653 154.488,142.458C157.203,139.055 159.293,137.021 159.293,132.296" style="fill:rgb(198,198,198);stroke-width:1px;stroke:black;"/>
    <path d="M91.374,147.826C91.372,151.737 90.695,162.766 84.52,162.766C83.772,162.766 83.636,160.359 83.618,160.233C83.247,157.612 83.231,154.963 82.767,152.366C82.703,152.009 82.847,149.791 82.316,149.534C81.323,149.052 78.242,153.796 77.328,154.543C76.437,155.271 74.755,154.511 73.693,154.723C71.478,155.164 69.928,157.93 67.488,157.93C66.557,157.93 67.286,156.075 67.286,155.145C67.286,153.196 67.217,151.263 67.443,149.327C67.547,148.434 67.578,148.134 67.724,147.324C67.798,146.915 68.449,146.018 68.044,146.117C65.996,146.618 64.786,150.215 62.526,150.59C61.295,150.794 61.898,148.356 61.898,147.708C61.898,144.354 61.898,141 61.898,137.646" style="fill:rgb(198,198,198);stroke-width:1px;stroke:black;"/>
    <path d="M59.062,44.539C60.599,48.557 61.98,52.583 63.454,56.589C63.815,57.569 64.074,60.219 64.857,61.014C65.304,61.468 65.398,59.861 65.682,59.29C66.048,58.556 66.252,57.235 66.826,56.624C67.018,56.419 67.375,57.791 68.047,57.439C69.059,56.909 69.855,55.63 70.866,54.991C71.868,54.357 73.559,55.394 74.086,55.013C75.282,54.148 76.017,52.38 76.911,51.281C80.539,46.824 84.45,42.481 88.276,38.193C90.743,35.427 93.605,32.945 96.305,30.424" style="fill:rgb(198,198,198);stroke-width:1px;stroke:black;"/>
</svg>
