<?xml version="1.0" standalone="no"?>
<!DOCTYPE svg PUBLIC "-//W3C//DTD SVG 1.1//EN" "http://www.w3.org/Graphics/SVG/1.1/DTD/svg11.dtd">
<svg width="100%" height="100%" viewBox="0 0 200 200" version="1.1" xmlns="http://www.w3.org/2000/svg" xmlns:xlink="http://www.w3.org/1999/xlink" xml:space="preserve" style="fill-rule:evenodd;clip-rule:evenodd;stroke-linejoin:round;stroke-miterlimit:1.41421;">
    <g transform="matrix(1,0,0,1,1.88672,1.5013)">
        <path d="M61.376,180.744C60.29,178.441 42.789,170.628 40.95,169.021C31.343,160.622 20.558,152.194 18.96,143.056C16.62,129.675 51.968,113.258 56.478,100.643C57.653,97.358 59.312,91.886 62.422,89.792C62.67,89.624 62.422,86.177 62.422,85.854C62.422,82.086 63.302,78.33 64.036,74.652C65.45,67.573 61.982,84.465 64.135,77.591C66.282,70.741 58.463,95.996 49.454,81.13C49.273,80.831 1.326,92.122 17.024,44.249C24.03,22.88 76.236,12.678 81.706,7.128C86.868,1.889 96.311,3.458 102.812,3.458C106.69,3.458 110.832,3.02 114.691,3.458C121.228,4.201 145.927,32.305 150.686,34.334C167.048,41.307 176.749,51.561 178.368,60.685C182.121,81.837 174.593,93.771 142.172,95.067C126.144,95.708 116.69,87.562 117.368,103.628C117.805,113.97 149.55,108.884 150.954,119.146C152.676,131.742 188.063,135.835 186.099,148.345C185.705,150.858 181.3,166.235 179.37,168.159C174.961,172.555 148.943,178.988 143.226,180.905C139.737,182.075 100.641,178.914 97.595,180.415" style="fill:rgb(203,203,203);"/>
    </g>
</svg>
