<?xml version="1.0" standalone="no"?>
<!DOCTYPE svg PUBLIC "-//W3C//DTD SVG 1.1//EN" "http://www.w3.org/Graphics/SVG/1.1/DTD/svg11.dtd">
<svg width="100%" height="100%" viewBox="0 0 200 200" version="1.1" xmlns="http://www.w3.org/2000/svg" xmlns:xlink="http://www.w3.org/1999/xlink" xml:space="preserve" style="fill-rule:evenodd;clip-rule:evenodd;stroke-linecap:round;stroke-linejoin:round;stroke-miterlimit:1.41421;">
    <path d="M91.946,35.609C91.946,35.609 71.498,29.988 59.395,34.086C47.291,38.185 32.728,56.004 32.728,56.004C32.728,56.004 22.283,63.799 19.341,74.582C16.4,85.366 18.777,110.66 18.777,110.66L10.316,136.354C10.316,136.354 26.711,133.806 21.923,139.352C17.134,144.898 7.857,173.751 7.857,173.751L43.474,169.914L38.925,190.698L88.551,175.104L112.217,187.323L130.269,170.361L171.117,191.861L177.415,174.196L192.21,176.351C192.21,176.351 189.741,129.747 181.518,127.42C173.295,125.092 192.917,125.133 192.917,125.133C192.917,125.133 182.771,94.915 176.584,92.932C170.397,90.948 189.452,87.282 189.452,87.282C189.452,87.282 176.855,79.459 174.834,67.148C172.813,54.838 139.403,32.461 130.786,29.628C122.168,26.795 97.921,28.205 91.946,35.609Z" style="fill:rgb(126,8,127);"/>
    <g transform="matrix(1,0,0,1,-6.18273,1.61241)">
        <circle cx="104.408" cy="70.329" r="46.818" style="fill:white;stroke-width:4px;stroke:black;"/>
    </g>
    <g transform="matrix(0.386529,0,0,0.392949,59.4596,46.2761)">
        <circle cx="104.408" cy="70.329" r="46.818" style="fill:black;stroke-width:10.26px;stroke:white;"/>
    </g>
    <g transform="matrix(1,0,0,1,-2.64062,-1.0625)">
        <path d="M22.15,76.361C22.15,76.361 12.404,63.589 12.462,53.928C12.521,44.268 30.736,38.681 27.079,30.724C23.423,22.767 12.064,13.138 12.064,13.138C12.064,13.138 32.448,17.788 34.69,22.15C36.932,26.512 44.908,32.682 36.771,41.633C28.634,50.583 44.643,63.539 44.643,63.539L22.15,76.361Z" style="fill:rgb(126,8,127);"/>
    </g>
    <g transform="matrix(-1,0,0,1,197.406,0.901042)">
        <path d="M22.15,76.361C22.15,76.361 12.404,63.589 12.462,53.928C12.521,44.268 30.736,38.681 27.079,30.724C23.423,22.767 12.064,13.138 12.064,13.138C12.064,13.138 32.448,17.788 34.69,22.15C36.932,26.512 44.908,32.682 36.771,41.633C28.634,50.583 44.643,63.539 44.643,63.539L22.15,76.361Z" style="fill:rgb(126,8,127);"/>
    </g>
</svg>
