<?xml version="1.0" standalone="no"?>
<!DOCTYPE svg PUBLIC "-//W3C//DTD SVG 1.1//EN" "http://www.w3.org/Graphics/SVG/1.1/DTD/svg11.dtd">
<svg width="100%" height="100%" viewBox="0 0 200 50" version="1.1" xmlns="http://www.w3.org/2000/svg" xmlns:xlink="http://www.w3.org/1999/xlink" xml:space="preserve" style="fill-rule:evenodd;clip-rule:evenodd;stroke-linejoin:round;stroke-miterlimit:1.41421;">
    <path d="M26.017,49.805C28.505,49.359 30.764,48.411 33.22,47.897C34.843,47.557 36.712,47.686 38.38,47.686C38.889,47.686 39.843,47.85 40.312,47.541C41.164,46.978 40.024,45.302 39.748,44.842C38.174,42.214 36.704,39.547 35.275,36.839C33.042,32.609 31.468,28.058 29.499,23.707C29.181,23.005 28.586,20.38 27.847,19.964C27.407,19.716 25.903,19.964 25.422,19.964C23.523,19.964 21.55,20.152 19.852,19.116C18.113,18.055 17.87,16.378 17.87,14.513C17.87,10.851 18.835,7.807 22.292,5.923C26.194,3.797 30.664,5.584 33.733,8.149C34.709,8.964 35.979,9.825 36.195,11.19C36.47,12.926 36.592,15.178 36.078,16.878C36.027,17.044 35.153,18.531 35.185,18.582C36.966,21.332 39.192,24.091 41.303,26.599C43.623,29.355 45.88,32.118 48.1,34.935C48.829,35.86 49.429,36.812 50.071,37.775C50.296,38.114 50.537,38.488 50.716,38.847C50.796,39.005 51.182,39.373 51.04,39.267C50.914,39.172 54.016,37.94 54.725,37.621C57.231,36.493 59.582,35.059 62.064,33.872C70.843,29.674 79.553,26.602 89.157,25.065C101.36,23.111 114.073,24.449 125.266,29.773C130.001,32.026 134.429,34.967 138.974,37.53C140.024,38.123 141.118,38.639 142.154,39.255C142.195,39.28 143.046,39.9 143.079,39.87C143.189,39.77 143.233,38.945 143.332,38.772C143.879,37.822 144.467,36.846 145.069,35.933C146.664,33.513 148.496,31.158 150.314,28.906C152.802,25.825 155.695,23.036 158.424,20.49C159.616,19.379 162.051,17.911 162.814,16.441C163.096,15.899 162.526,14.022 162.486,13.427C162.297,10.58 162.377,7.94 164.886,6.171C167.732,4.164 171.262,4.566 174.473,5.241C176.131,5.589 177.993,6.021 179.23,7.257C181.607,9.635 181.151,14.527 179.686,17.215C178.29,19.778 173.901,19.647 171.272,19.647C170.674,19.647 169.321,19.375 168.758,19.647C166.913,20.54 165.165,22.485 163.87,24.022C162.149,26.065 160.579,28.348 158.601,30.158C156.67,31.923 154.8,33.215 153.377,35.473C152.891,36.242 151.347,37.859 151.305,38.686C151.291,38.963 151.712,39.065 151.924,39.244C152.891,40.062 153.746,40.956 154.673,41.819C155.62,42.701 156.599,43.552 157.562,44.418C159.868,46.494 162.583,48.202 164.13,50.932C164.37,51.355 165.036,52.289 165.036,52.763" style="fill:rgb(175,175,175);"/>
</svg>
