<?xml version="1.0" standalone="no"?>
<!DOCTYPE svg PUBLIC "-//W3C//DTD SVG 1.1//EN" "http://www.w3.org/Graphics/SVG/1.1/DTD/svg11.dtd">
<svg width="100%" height="100%" viewBox="0 0 200 50" version="1.1" xmlns="http://www.w3.org/2000/svg" xmlns:xlink="http://www.w3.org/1999/xlink" xml:space="preserve" style="fill-rule:evenodd;clip-rule:evenodd;stroke-linejoin:round;stroke-miterlimit:1.41421;">
    <path d="M14.251,48.91C14.251,44.951 13.852,40.793 14.342,36.866C14.985,31.709 16.894,26.806 18.035,21.771C18.519,19.637 19.001,17.605 19.679,15.524C19.803,15.141 19.955,14.047 20.361,13.843C20.778,13.633 22.073,13.825 22.485,13.843C24.484,13.93 26.371,14.243 28.326,14.663C36.7,16.458 45.26,19.59 52.23,24.639C54.538,26.311 56.265,28.869 58.105,31.03C58.274,31.228 59.622,33.18 59.827,33.072C61.253,32.319 63.19,31.831 64.77,31.173C70.64,28.728 76.708,26.495 82.94,25.132C86.33,24.391 89.778,24.274 93.208,23.877C98.147,23.306 103.533,21.511 108.565,22.096C109.405,22.194 110.296,22.609 111.061,22.932C111.177,22.981 112.034,22.925 112.074,22.932C114.308,23.337 116.652,24.157 118.814,24.837C123.994,26.466 129.061,28.397 134.108,30.383C136.52,31.332 139.651,31.37 141.909,32.543C143.721,33.484 145.223,35.094 147.022,35.993C147.037,36.001 147.071,34.8 147.082,34.687C147.169,33.815 147.699,32.872 148.074,32.127C149.381,29.524 150.986,26.928 152.656,24.541C154.83,21.432 157.957,18.714 160.765,16.204C163.296,13.942 166.044,12.285 168.915,10.592C169.702,10.128 170.308,9.54 171.336,9.194C171.642,9.091 172.016,8.65 172.248,8.873C174.446,10.985 176.32,13.943 178.074,16.43C179.419,18.337 180.518,20.481 181.517,22.581C183.25,26.227 184.155,30.367 184.875,34.331C185.947,40.241 186.199,45.947 186.199,51.893" style="fill:rgb(173,173,173);"/>
</svg>
