<?xml version="1.0" standalone="no"?>
<!DOCTYPE svg PUBLIC "-//W3C//DTD SVG 1.1//EN" "http://www.w3.org/Graphics/SVG/1.1/DTD/svg11.dtd">
<svg width="100%" height="100%" viewBox="0 0 200 50" version="1.1" xmlns="http://www.w3.org/2000/svg" xmlns:xlink="http://www.w3.org/1999/xlink" xml:space="preserve" style="fill-rule:evenodd;clip-rule:evenodd;stroke-linejoin:round;stroke-miterlimit:1.41421;">
    <path d="M25.596,50.715C21.447,44.848 17.968,39.047 17.14,31.75C16.726,28.102 16.687,24.604 16.65,20.938C16.629,18.899 17.053,16.87 17.053,14.771C17.053,13.657 17.079,12.572 17.218,11.465C17.296,10.844 17.386,10.216 17.488,9.598C17.695,8.345 18.106,7.609 18.767,8.711C19.004,9.107 18.972,9.071 19.315,9.526C19.905,10.31 19.874,10.275 20.417,11.048C21.604,12.739 22.99,14.246 24.351,15.794C26.977,18.78 29.811,21.5 32.684,24.237C33.998,25.487 35.583,27.408 37.12,28.359C43.658,32.404 51.327,35.608 57.153,40.553C58.022,41.291 58.909,41.991 59.748,42.762C61.828,44.674 63.924,46.212 65.321,48.28C65.572,48.651 66.576,50.332 67.073,50.332" style="fill:rgb(133,133,133);stroke-width:1px;stroke:black;"/>
    <path d="M132.17,50.64C132.271,45.582 136.039,40.82 139.85,37.84C140.33,37.465 141.044,35.514 141.404,34.917C143.037,32.209 144.694,29.568 146.67,27.093C150.885,21.816 155.559,16.907 160.424,12.224C162.338,10.382 164.675,8.866 166.522,7.002C167.026,6.493 167.281,5.644 167.685,5.233C167.76,5.157 167.685,6.383 167.685,6.715C167.685,7.987 167.774,9.174 168.048,10.414C168.798,13.821 169.718,17.094 170.361,20.543C171.04,24.18 171.51,28.18 171.108,31.894C170.827,34.486 169.801,37.039 169.341,39.616C168.573,43.922 167.828,48.387 166.984,52.598" style="fill:rgb(155,155,155);stroke-width:1px;stroke:black;"/>
    <path d="M159.378,18.812C159.88,22.179 161.349,23.511 164.653,23.511" style="fill:none;stroke-width:1px;stroke:black;"/>
    <path d="M153.754,32.244C156.287,34.471 157.876,35.38 161.099,35.38" style="fill:none;stroke-width:1px;stroke:black;"/>
    <path d="M21.409,29.54C22.05,29.909 22.667,30.323 23.331,30.648C25.007,31.468 27.893,31.231 29.342,30.142C29.716,29.861 30.675,29.426 30.675,28.857" style="fill:none;stroke-width:1px;stroke:black;"/>
    <path d="M25.015,36.565C28.991,37.456 32.888,38.07 36.919,38.573C38.296,38.744 41.335,39.353 42.643,38.617C44.086,37.805 44.725,36.075 46.047,35.187" style="fill:none;stroke-width:1px;stroke:black;"/>
</svg>
