<?xml version="1.0" standalone="no"?>
<!DOCTYPE svg PUBLIC "-//W3C//DTD SVG 1.1//EN" "http://www.w3.org/Graphics/SVG/1.1/DTD/svg11.dtd">
<svg width="100%" height="100%" viewBox="0 0 200 50" version="1.1" xmlns="http://www.w3.org/2000/svg" xmlns:xlink="http://www.w3.org/1999/xlink" xml:space="preserve" style="fill-rule:evenodd;clip-rule:evenodd;stroke-linecap:round;stroke-linejoin:round;stroke-miterlimit:1.41421;">
    <path d="M89.123,50.045C89.123,44.766 89.673,39.943 90.431,34.747C90.989,30.925 90.982,26.932 92.153,23.224C92.623,21.738 92.287,19.327 92.487,17.727C92.937,14.112 93.508,10.459 94.219,6.883C94.467,5.634 94.645,4.261 95.043,3.064C95.09,2.922 95.53,1.318 95.626,1.412C98.393,4.133 100.743,8.165 103.035,11.356C106.825,16.633 110.894,22.104 113.714,27.992C113.772,28.114 113.778,29.188 113.792,29.254C114.027,30.359 114.437,31.484 114.783,32.56C116.043,36.477 117.61,40.274 119.545,43.902C120.186,45.104 121.089,46.385 121.513,47.658C121.663,48.108 121.912,48.518 122.125,48.942C122.239,49.171 122.531,49.849 122.531,49.593" style="fill:rgb(132,132,132);stroke-width:1px;stroke:black;"/>
    <path d="M95.546,23.945C98.339,26.552 101.024,27.718 104.787,27.718C106.474,27.718 108.19,27.713 108.19,25.712" style="fill:none;stroke-width:1px;stroke:black;"/>
    <path d="M95.487,32.745C98.039,36.862 101.535,39.117 106.345,39.117C107.916,39.117 108.745,38.804 110.17,38.231C110.841,37.961 111.658,37.855 111.51,37.116" style="fill:none;stroke-width:1px;stroke:black;"/>
    <path d="M94.217,45.442C97.955,47.01 102.641,48.013 106.744,48.013C108.322,48.013 109.933,48.098 111.489,47.901C111.639,47.882 113.514,47.404 113.043,47.167" style="fill:none;stroke-width:1px;stroke:black;"/>
</svg>
