<?xml version="1.0" standalone="no"?>
<!DOCTYPE svg PUBLIC "-//W3C//DTD SVG 1.1//EN" "http://www.w3.org/Graphics/SVG/1.1/DTD/svg11.dtd">
<svg width="100%" height="100%" viewBox="0 0 200 100" version="1.1" xmlns="http://www.w3.org/2000/svg" xmlns:xlink="http://www.w3.org/1999/xlink" xml:space="preserve" style="fill-rule:evenodd;clip-rule:evenodd;stroke-linecap:round;stroke-linejoin:round;stroke-miterlimit:1.41421;">
    <path d="M36.686,37.214C36.686,44.07 35.086,53.332 37.363,59.842C40.61,69.126 48.833,75.501 57.605,79.152C62.719,81.281 67.227,83.831 72.896,83.29C76.518,82.945 81.696,82.474 84.724,80.303C88.235,77.786 91.245,71.067 93.014,67.056C94.173,64.429 95.585,61.344 95.585,58.435C95.585,57.383 95.446,56.226 95.585,55.185C95.659,54.625 96.092,53.082 96.246,53.625C97.649,58.558 95.973,64.254 97.413,69.439C101.064,82.584 113.985,88.033 126.076,84.496C133.679,82.272 140.94,78.823 147.944,75.147C150.943,73.573 154.724,72.458 157.038,69.803C159.72,66.726 159.641,62.076 159.641,58.251C159.641,56.082 159.822,53.833 159.479,51.686C158.333,44.514 155.505,31.532 148.07,27.789" style="fill:none;stroke-width:2px;stroke:black;"/>
    <path d="M97.249,27.44C91.497,23.954 87.59,20.338 83.51,15.135C82.917,14.379 80.717,12.18 80.674,11.301C80.662,11.048 84.738,11.023 85.027,10.988C87.13,10.734 89.194,10.172 91.288,9.837C92.42,9.656 93.575,9.578 94.708,9.396C98.123,8.848 106.798,6.843 109.324,10.216C111.413,13.005 108.534,15.208 106.483,16.964C103.059,19.894 99.222,22.955 95.217,24.988C94.947,25.125 92.535,22.177 92.357,21.945C89.997,18.869 86.501,15.809 84.76,12.328C84.577,11.961 87.938,14.013 88.173,14.247C90.123,16.197 91.81,18.592 93.699,20.48C94.196,20.977 92.706,19.487 92.21,18.991C91.899,18.68 88.203,15.842 88.81,15.283C90.104,14.089 93.773,13.891 95.424,13.673C96.449,13.538 97.459,13.45 98.471,13.246C98.867,13.167 100.078,13.122 99.674,13.122C99.069,13.122 98.481,13.07 97.895,13.236C97.668,13.3 96.98,13.435 97.216,13.435C98.105,13.435 98.968,13.476 99.845,13.302C100.3,13.212 101.684,13.091 101.22,13.091L97.566,13.091C95.507,13.091 101.478,11.255 99.357,11.398C98.96,11.425 98.565,11.487 98.172,11.546C97.635,11.626 97.101,11.727 96.564,11.809C95.759,11.931 94.932,12.185 94.12,12.185C93.326,12.185 95.623,11.675 96.384,11.452C97.378,11.161 102.734,9.243 103.714,10.223C104.229,10.738 102.671,11.285 102.012,11.594C99.382,12.826 96.657,14.038 94.264,15.673C93.994,15.858 92.522,16.733 92.132,17.04C91.682,17.395 90.781,18.372 91.323,18.556C92.768,19.046 94.822,18.678 96.348,18.678C97.056,18.678 97.696,18.628 98.38,18.432C98.615,18.365 99.271,18.253 99.053,18.143C97.703,17.463 95.81,18.684 94.757,19.355C94.203,19.708 92.561,20.787 93.142,20.482C95.185,19.409 97.166,16.99 98.783,15.371C99.388,14.765 99.997,14.202 100.642,13.641C100.874,13.439 101.524,12.816 101.382,13.089C100.411,14.941 98.568,16.482 97.288,18.15C96.475,19.209 96.553,19.152 95.74,20.167C95.427,20.557 94.614,21.818 94.906,21.413C96.194,19.625 97.891,18.07 99.379,16.432C99.43,16.376 100.955,14.434 101.243,14.704C101.255,14.715 98.351,17.709 97.947,18.112C97.86,18.199 96.689,19.436 96.77,19.475C97.284,19.728 98.91,18.075 99.118,17.909C99.967,17.231 103.936,14.993 104.009,13.771C104.042,13.215 103.015,14.309 102.622,14.704C101.691,15.644 100.812,16.691 99.935,17.68C99.595,18.063 98.945,19.366 98.945,18.854C98.945,17.982 100.898,16.257 101.367,15.725C103.079,13.784 104.701,11.791 106.443,9.874" style="fill:none;stroke-width:2px;stroke:black;"/>
</svg>
