<?xml version="1.0" standalone="no"?>
<!DOCTYPE svg PUBLIC "-//W3C//DTD SVG 1.1//EN" "http://www.w3.org/Graphics/SVG/1.1/DTD/svg11.dtd">
<svg width="100%" height="100%" viewBox="0 0 200 100" version="1.1" xmlns="http://www.w3.org/2000/svg" xmlns:xlink="http://www.w3.org/1999/xlink" xml:space="preserve" style="fill-rule:evenodd;clip-rule:evenodd;stroke-linecap:round;stroke-linejoin:round;stroke-miterlimit:1.41421;">
    <path d="M25.397,21.207C25.201,30.109 24.2,39.977 25.302,48.822C25.855,53.259 27.488,57.71 28.57,62.048C28.911,63.414 30.292,65.564 30.292,66.901C30.292,67.252 30.241,66.195 30.292,65.848C30.424,64.946 30.97,64.213 31.444,63.47C32.812,61.324 34.228,59.214 35.568,57.051C38.6,52.153 41.799,47.445 45.121,42.775C46.015,41.518 46.874,39.22 48.055,38.311C49.05,37.545 54.559,37.813 55.96,37.543C67.646,35.293 80.166,35.336 92.053,35.822C97.644,36.05 103.142,37.642 108.74,38.01C117.169,38.565 125.758,37.424 134.266,37.829C137.504,37.984 140.791,37.829 144.035,37.829C144.559,37.829 146.638,37.703 147.066,38.132C151.427,42.492 155.378,49.255 158.035,54.947C158.869,56.732 159.773,58.544 160.397,60.417C160.688,61.289 160.971,63.565 161.603,62.897C164.6,59.728 165.959,54.176 167.018,50.117C168.852,43.09 170.859,35.114 169.849,27.742C169.65,26.29 168.138,25.439 168.138,24.013" style="fill:none;stroke-width:2px;stroke:black;"/>
    <path d="M52.802,93.497C52.802,91.561 52.385,88.274 53.207,86.143C54.06,83.931 57.105,79.933 57.105,77.755C57.105,77.416 57.332,78.404 57.522,78.685C58.066,79.489 57.964,79.45 58.475,80.337C59.798,82.635 61.449,84.787 62.96,86.966C63.601,87.892 64.211,88.774 64.939,89.628C65.223,89.961 65.813,91.043 65.82,90.604C65.829,90.074 75.211,90.357 75.322,90.357C76.177,90.357 77.033,90.357 77.888,90.357C90.723,90.357 103.238,90.476 115.932,91.538C119.842,91.865 123.815,92.177 127.742,92.177C128.784,92.177 131.3,92.688 132.314,92.177C134.398,91.127 135.064,87.465 135.598,85.536C136.17,83.469 136.597,81.396 137.063,79.297C137.393,77.807 137.382,71.769 138.484,70.63C139.531,69.549 142.756,75.195 142.995,75.737C145.795,82.087 147.895,86.56 147.895,93.41" style="fill:none;stroke-width:2px;stroke:black;"/>
</svg>
