<?xml version="1.0" standalone="no"?>
<!DOCTYPE svg PUBLIC "-//W3C//DTD SVG 1.1//EN" "http://www.w3.org/Graphics/SVG/1.1/DTD/svg11.dtd">
<svg width="100%" height="100%" viewBox="0 0 200 100" version="1.1" xmlns="http://www.w3.org/2000/svg" xmlns:xlink="http://www.w3.org/1999/xlink" xml:space="preserve" style="fill-rule:evenodd;clip-rule:evenodd;stroke-linecap:round;stroke-linejoin:round;stroke-miterlimit:1.41421;">
    <path d="M60.289,14.216C61.919,22.914 66.614,32.473 65.654,41.495C65.311,44.711 63.402,48.229 62.242,51.203C59.417,58.448 58.734,65.226 58.734,72.973C58.734,75.072 58.716,80.696 60.896,82.133C62.474,83.173 64.55,84.002 66.281,84.811C80.53,91.472 103.063,85.305 104.365,67.499C104.828,61.163 102.903,55.471 101.956,49.313C101.801,48.309 102.047,43.693 99.997,43.693" style="fill:none;stroke-width:2px;stroke:black;"/>
    <path d="M100.01,76.59C103.199,80.405 108.516,87.832 113.46,89.702C116.358,90.798 121.283,89.098 124.133,88.432C128.913,87.315 133.137,86.586 136.94,83.145C141.28,79.217 141.494,73.819 142.793,68.456C143.836,64.15 144.791,59.819 144.483,55.352C144.305,52.766 142.691,50.167 142.004,47.678C141.653,46.407 142.198,44.735 141.414,43.634C137.673,38.378 130.705,31.951 132.245,24.668C133.388,19.262 137.586,15.486 141.693,12.378C142.985,11.4 144.076,8.694 145.801,8.694" style="fill:none;stroke-width:2px;stroke:black;"/>
</svg>
