<?xml version="1.0" standalone="no"?>
<!DOCTYPE svg PUBLIC "-//W3C//DTD SVG 1.1//EN" "http://www.w3.org/Graphics/SVG/1.1/DTD/svg11.dtd">
<svg width="100%" height="100%" viewBox="0 0 200 100" version="1.1" xmlns="http://www.w3.org/2000/svg" xmlns:xlink="http://www.w3.org/1999/xlink" xml:space="preserve" style="fill-rule:evenodd;clip-rule:evenodd;stroke-linecap:round;stroke-linejoin:round;stroke-miterlimit:1.41421;">
    <path d="M49.098,10.414C50.014,14.244 51.361,18.065 53.111,21.604C54.924,25.272 57.889,28.607 59.122,32.564C62.734,44.151 66.655,56.2 71.118,67.759C73.443,73.778 73.747,80.005 73.747,86.457C73.747,87.627 72.251,89.476 71.501,90.221C71.454,90.269 69.976,91.383 70.126,91.465C71.649,92.295 76.079,90.023 77.651,89.711C84.754,88.3 92.54,87.646 99.729,86.826C108.113,85.869 118.249,89.161 126.284,91.358C128.157,91.87 129.882,92.69 131.625,93.461C131.719,93.502 133.866,94.959 133.915,94.911C134.411,94.432 131.272,89.843 131.079,89.204C129.784,84.903 128.715,79.231 129.971,74.82C134.347,59.456 140.41,44.73 143.184,28.944C144.606,20.848 148.828,13.345 148.828,5.004" style="fill:none;stroke-width:2px;stroke:black;"/>
    <path d="M79.07,17.542C89.04,19.729 100.055,18.366 110.227,18.366C112.839,18.366 120.613,19.938 122.203,16.741" style="fill:none;stroke-width:2px;stroke:black;"/>
    <path d="M85.482,28.273C96.047,31.637 108.573,29.68 119.604,29.68" style="fill:none;stroke-width:2px;stroke:black;"/>
    <path d="M91.389,48.909C100.428,50.573 108.899,51.007 118.107,51.007C119.072,51.007 120.036,51.007 121.001,51.007C121.784,51.007 128.063,51.813 127.552,50.292" style="fill:none;stroke-width:2px;stroke:black;"/>
</svg>
